<svg xmlns="http://www.w3.org/2000/svg" width="256" height="256" viewBox="0 0 100 100"><rect width="100" height="100" rx="0" fill="#008080"></rect><path fill="#fff" d="M37.92 75.45L31.75 75.45L31.75 24.55L48.96 24.55Q54.92 24.55 58.75 26.57Q62.58 28.60 64.42 32.13Q66.26 35.66 66.26 40.16L66.26 40.16Q66.26 44.66 64.42 48.14Q62.58 51.62 58.77 53.59Q54.97 55.57 49.06 55.57L49.06 55.57L35.13 55.57L35.13 50L48.86 50Q52.93 50 55.43 48.81Q57.93 47.61 59.06 45.41Q60.19 43.21 60.19 40.16L60.19 40.16Q60.19 37.10 59.05 34.81Q57.90 32.52 55.39 31.27Q52.88 30.01 48.76 30.01L48.76 30.01L37.92 30.01L37.92 75.45ZM48.76 52.59L55.72 52.59L68.25 75.45L61.09 75.45L48.76 52.59Z"></path></svg>